# Blender 4.5.1 LTS
# www.blender.org
mtllib KnightMail_Gimmick.mtl
o Object.2
v -0.054241 12.063304 2.440912
v 0.433941 11.873456 3.281670
v 0.881442 11.873456 2.698563
v 1.681518 11.331033 2.901975
v 0.840759 11.331033 3.986821
v -0.298332 11.873456 3.376595
v 1.505230 11.331033 1.545911
v 0.786518 11.873456 1.952729
v -0.515303 11.331033 4.176672
v -0.895000 11.873456 2.929094
v 2.210384 10.503833 3.051141
v 1.979852 10.503833 1.274698
v 1.125533 10.503833 4.461446
v 0.420379 11.331033 0.705153
v 0.555987 10.503833 0.176289
v 0.203412 11.873456 1.505229
v -0.949242 11.331033 0.895003
v -0.528863 11.873456 1.600154
v -1.220455 10.503833 0.406819
v -1.315379 9.527469 0.244092
v 0.610230 9.527469 0.000002
v -1.220455 8.564665 0.406819
v 2.142580 9.527469 1.179775
v 0.555987 8.564665 0.176289
v -0.949242 7.737467 0.895003
v 2.400231 9.527469 3.091824
v 0.420379 7.737467 0.705153
v -0.528863 7.195041 1.600154
v 1.979852 8.564665 1.274698
v 0.203412 7.195041 1.505229
v -0.054241 7.005193 2.440913
v 1.505230 7.737467 1.545912
v 2.210384 8.564665 3.051141
v 1.220458 9.527469 4.637734
v 0.786518 7.195041 1.952729
v 1.681518 7.737467 2.901975
v -0.650908 10.503833 4.705535
v 1.125533 8.564665 4.461446
v 0.881442 7.195041 2.698564
v 0.840759 7.737467 3.986822
v -0.705151 9.527469 4.881824
v -1.600152 11.331033 3.335914
v 0.433941 7.195042 3.281671
v -0.650908 8.564665 4.705536
v -2.074773 10.503833 3.607125
v -0.989924 11.873456 2.183261
v -0.515303 7.737467 4.176673
v -2.251060 9.527469 3.702051
v -1.776440 11.331033 1.979851
v -2.305304 10.503833 1.830685
v -2.495152 9.527469 1.790003
v -2.074773 8.564665 3.607125
v -2.305304 8.564665 1.830685
v -1.600152 7.737467 3.335915
v -1.776440 7.737467 1.979851
v -0.298332 7.195042 3.376596
v -0.895000 7.195041 2.929095
v -0.989924 7.195041 2.183261
vn 0.1639 0.9784 0.1258
vn 0.2057 0.9783 -0.0262
vn 0.1258 0.9784 -0.1639
vn -0.0267 0.9782 -0.2058
vn -0.1630 0.9782 -0.1289
vn -0.2057 0.9783 0.0262
vn -0.1245 0.9782 0.1660
vn -0.3455 0.8176 0.4606
vn 0.0804 0.8148 0.5742
vn 0.0752 0.8109 0.5804
vn 0.4618 0.8116 0.3579
vn 0.6730 0.5244 0.5216
vn 0.8463 0.5213 -0.1098
vn 0.8461 0.5215 -0.1100
vn 0.5214 0.5208 -0.6759
vn 0.5239 0.5181 -0.6760
vn -0.1097 0.5226 -0.8455
vn -0.1162 0.5328 -0.8382
vn -0.6765 0.5260 -0.5154
vn -0.6765 0.5256 -0.5159
vn -0.8463 0.5213 0.1098
vn -0.8461 0.5215 0.1100
vn -0.5214 0.5208 0.6759
vn -0.5239 0.5181 0.6760
vn 0.1162 0.5214 0.8454
vn 0.1337 0.1887 0.9729
vn 0.7814 0.1836 0.5964
vn 0.7802 0.1767 0.6001
vn 0.9741 0.1839 -0.1313
vn 0.9753 -0.1778 -0.1314
vn 0.6010 -0.1784 -0.7791
vn 0.6005 -0.1766 -0.7799
vn -0.1268 -0.1717 -0.9770
vn -0.1238 -0.1772 -0.9764
vn -0.7827 -0.1780 -0.5964
vn -0.7821 -0.1794 -0.5968
vn -0.9742 -0.1868 0.1264
vn -0.9738 -0.1906 0.1243
vn -0.6001 -0.1866 0.7779
vn -0.5971 -0.1769 0.7824
vn 0.1341 -0.1712 0.9761
vn 0.1235 -0.1905 0.9739
vn 0.7787 -0.1865 0.5990
vn 0.6746 -0.5249 0.5190
vn 0.8463 -0.5212 -0.1100
vn 0.8462 -0.5215 -0.1098
vn 0.5228 -0.5212 -0.6746
vn 0.3542 -0.8159 -0.4571
vn -0.0743 -0.8159 -0.5733
vn -0.0800 -0.8126 -0.5773
vn -0.4529 -0.8165 -0.3581
vn -0.4665 -0.8098 -0.3557
vn -0.5790 -0.8120 0.0737
vn -0.5803 -0.8109 0.0754
vn -0.3521 -0.8097 0.4694
vn -0.3542 -0.8159 0.4571
vn 0.0743 -0.8159 0.5733
vn 0.0809 -0.8120 0.5780
vn 0.4641 -0.8110 0.3561
vn 0.4604 -0.8129 0.3568
vn 0.5723 -0.8168 -0.0728
vn 0.2057 -0.9783 -0.0262
vn 0.1258 -0.9784 -0.1639
vn 0.1639 -0.9784 0.1258
vn 0.1183 -0.5210 0.8453
vn 0.0266 -0.9783 0.2054
vn -0.5228 -0.5211 0.6746
vn -0.1245 -0.9782 0.1660
vn -0.8463 -0.5212 0.1100
vn -0.2057 -0.9783 0.0262
vn -0.6763 -0.5261 -0.5157
vn -0.1630 -0.9782 -0.1289
vn -0.1172 -0.5212 -0.8453
vn -0.0267 -0.9782 -0.2058
vn 0.3536 -0.8141 -0.4607
vn 0.5735 -0.8158 -0.0746
vn 0.6707 -0.5291 0.5198
vn 0.1159 -0.5240 0.8438
vn -0.5964 0.1836 0.7814
vn -0.5223 -0.5185 0.6770
vn -0.9749 0.1844 0.1245
vn -0.8462 -0.5215 0.1098
vn -0.7826 0.1756 -0.5972
vn -0.6767 -0.5256 -0.5156
vn -0.1239 0.1696 -0.9777
vn -0.1090 -0.5315 -0.8400
vn 0.6005 0.1759 -0.7800
vn 0.5223 -0.5185 -0.6770
vn 0.9742 -0.1868 -0.1264
vn 0.7821 -0.1794 0.5968
vn 0.1239 0.1696 0.9777
vn -0.6015 0.1742 0.7797
vn -0.5792 0.8117 0.0753
vn -0.9740 0.1881 0.1264
vn -0.4612 0.8146 -0.3517
vn -0.7829 0.1771 -0.5965
vn -0.0796 0.8149 -0.5741
vn -0.1267 0.1750 -0.9764
vn 0.3553 0.8146 -0.4585
vn 0.6015 0.1742 -0.7797
vn 0.5725 0.8165 -0.0744
vn 0.9764 0.1750 -0.1267
vn 0.6728 0.5286 0.5176
vn 0.1181 0.5245 0.8432
vn -0.3579 0.8116 0.4618
vn -0.5809 0.8106 0.0739
vn -0.4625 0.8077 -0.3657
vn -0.0751 0.8115 -0.5795
vn 0.3516 0.8164 -0.4581
vn 0.5741 0.8155 -0.0731
vn 0.4614 0.8134 0.3541
vn 0.0266 0.9783 0.2054
s 0
f 1//1 2//1 3//1
f 1//2 3//2 8//2
f 1//3 8//3 16//3
f 1//4 16//4 18//4
f 1//5 18//5 46//5
f 1//6 46//6 10//6
f 1//7 10//7 6//7
f 6//8 10//8 9//8
f 6//9 9//9 5//9
f 2//10 6//10 5//10
f 2//11 5//11 4//11
f 4//12 5//12 11//12
f 4//13 11//13 12//13
f 7//14 4//14 12//14
f 7//15 12//15 15//15
f 14//16 7//16 15//16
f 14//17 15//17 19//17
f 17//18 14//18 19//18
f 17//19 19//19 50//19
f 49//20 17//20 50//20
f 49//21 50//21 45//21
f 42//22 49//22 45//22
f 42//23 45//23 37//23
f 9//24 42//24 37//24
f 9//25 37//25 13//25
f 13//26 37//26 34//26
f 13//27 34//27 26//27
f 11//28 13//28 26//28
f 11//29 26//29 23//29
f 23//30 26//30 29//30
f 23//31 29//31 24//31
f 21//32 23//32 24//32
f 21//33 24//33 22//33
f 20//34 21//34 22//34
f 20//35 22//35 53//35
f 51//36 20//36 53//36
f 51//37 53//37 52//37
f 48//38 51//38 52//38
f 48//39 52//39 44//39
f 41//40 48//40 44//40
f 41//41 44//41 38//41
f 34//42 41//42 38//42
f 34//43 38//43 33//43
f 33//44 38//44 36//44
f 33//45 36//45 32//45
f 29//46 33//46 32//46
f 29//47 32//47 27//47
f 27//48 32//48 30//48
f 27//49 30//49 28//49
f 25//50 27//50 28//50
f 25//51 28//51 58//51
f 55//52 25//52 58//52
f 55//53 58//53 57//53
f 54//54 55//54 57//54
f 54//55 57//55 56//55
f 47//56 54//56 56//56
f 47//57 56//57 43//57
f 40//58 47//58 43//58
f 40//59 43//59 39//59
f 36//60 40//60 39//60
f 36//61 39//61 35//61
f 35//62 39//62 31//62
f 30//63 35//63 31//63
f 39//64 43//64 31//64
f 44//65 47//65 40//65
f 43//66 56//66 31//66
f 52//67 54//67 47//67
f 56//68 57//68 31//68
f 53//69 55//69 54//69
f 57//70 58//70 31//70
f 22//71 25//71 55//71
f 58//72 28//72 31//72
f 24//73 27//73 25//73
f 28//74 30//74 31//74
f 32//75 35//75 30//75
f 32//76 36//76 35//76
f 38//77 40//77 36//77
f 38//78 44//78 40//78
f 45//79 48//79 41//79
f 44//80 52//80 47//80
f 50//81 51//81 48//81
f 52//82 53//82 54//82
f 19//83 20//83 51//83
f 53//84 22//84 55//84
f 15//85 21//85 20//85
f 22//86 24//86 25//86
f 12//87 23//87 21//87
f 24//88 29//88 27//88
f 26//89 33//89 29//89
f 26//90 34//90 33//90
f 37//91 41//91 34//91
f 37//92 45//92 41//92
f 46//93 49//93 42//93
f 45//94 50//94 48//94
f 18//95 17//95 49//95
f 50//96 19//96 51//96
f 16//97 14//97 17//97
f 19//98 15//98 20//98
f 8//99 7//99 14//99
f 15//100 12//100 21//100
f 3//101 4//101 7//101
f 12//102 11//102 23//102
f 5//103 13//103 11//103
f 5//104 9//104 13//104
f 10//105 42//105 9//105
f 10//106 46//106 42//106
f 46//107 18//107 49//107
f 18//108 16//108 17//108
f 16//109 8//109 14//109
f 8//110 3//110 7//110
f 3//111 2//111 4//111
f 1//112 6//112 2//112
